<svg width="30" height="34" viewBox="0 0 30 34" fill="none" xmlns="http://www.w3.org/2000/svg">
<path fill-rule="evenodd" clip-rule="evenodd" d="M0 19C0 10.7155 6.7155 4 15 4C23.2845 4 30 10.7155 30 19C30 27.2845 23.2845 34 15 34C6.7155 34 0 27.2845 0 19ZM15 7C11.8174 7 8.76515 8.26428 6.51472 10.5147C4.26428 12.7652 3 15.8174 3 19C3 22.1826 4.26428 25.2348 6.51472 27.4853C8.76515 29.7357 11.8174 31 15 31C18.1826 31 21.2348 29.7357 23.4853 27.4853C25.7357 25.2348 27 22.1826 27 19C27 15.8174 25.7357 12.7652 23.4853 10.5147C21.2348 8.26428 18.1826 7 15 7Z" fill="#FFDE29"/>
<path d="M10.4889 20.475V16.75H19.5139V20.475H10.4889Z" fill="#FFDE29"/>
</svg>
