<svg width="907" height="524" viewBox="0 0 907 524" fill="none" xmlns="http://www.w3.org/2000/svg">
<g filter="url(#filter0_d_1_1690)">
<path d="M306.193 87.0088H117.613C120.637 87.0088 127.334 81.8642 129.926 61.2855C132.518 40.7068 141.807 39.6779 146.127 41.7358H271.198C284.159 41.7358 288.047 40.7068 291.936 61.2855C295.046 77.7484 302.736 85.294 306.193 87.0088Z" fill="url(#paint0_linear_1_1690)" stroke="url(#paint1_linear_1_1690)" stroke-width="0.56801"/>
<path d="M29 105.185C29 95.1464 37.1378 87.0085 47.1763 87.0085H859.999C870.038 87.0085 878.175 95.1464 878.175 105.185V506.768H29V105.185Z" fill="black"/>
</g>
<defs>
<filter id="filter0_d_1_1690" x="0.599487" y="0.955344" width="905.977" height="522.853" filterUnits="userSpaceOnUse" color-interpolation-filters="sRGB">
<feFlood flood-opacity="0" result="BackgroundImageFix"/>
<feColorMatrix in="SourceAlpha" type="matrix" values="0 0 0 0 0 0 0 0 0 0 0 0 0 0 0 0 0 0 127 0" result="hardAlpha"/>
<feOffset dy="-11.3602"/>
<feGaussianBlur stdDeviation="14.2003"/>
<feComposite in2="hardAlpha" operator="out"/>
<feColorMatrix type="matrix" values="0 0 0 0 0 0 0 0 0 0 0 0 0 0 0 0 0 0 0.5 0"/>
<feBlend mode="normal" in2="BackgroundImageFix" result="effect1_dropShadow_1_1690"/>
<feBlend mode="normal" in="SourceGraphic" in2="effect1_dropShadow_1_1690" result="shape"/>
</filter>
<linearGradient id="paint0_linear_1_1690" x1="231.499" y1="41" x2="236.611" y2="107.741" gradientUnits="userSpaceOnUse">
<stop stop-color="#202020"/>
<stop offset="0.480909"/>
<stop offset="0.954952"/>
</linearGradient>
<linearGradient id="paint1_linear_1_1690" x1="230.079" y1="2.09128" x2="216.447" y2="126.486" gradientUnits="userSpaceOnUse">
<stop stop-color="white" stop-opacity="0.62"/>
<stop offset="1" stop-opacity="0"/>
</linearGradient>
</defs>
</svg>
