<svg width="187" height="125" viewBox="0 0 187 125" fill="none" xmlns="http://www.w3.org/2000/svg">
<path d="M75.5596 20.4405L77.1681 21.8687L75.5595 20.4405C75.5576 20.4428 75.5563 20.4436 75.5555 20.4441C75.5543 20.4448 75.5524 20.4457 75.5501 20.4463C75.5477 20.4468 75.5457 20.447 75.5443 20.4469C75.5438 20.4469 75.5433 20.4468 75.5425 20.4467C75.5416 20.4465 75.5405 20.4462 75.539 20.4456L50.273 10.965C47.4111 9.89115 44.3695 12.0473 44.4352 15.1033L44.7858 31.4137C44.7859 31.4182 44.7855 31.42 44.7855 31.4201L44.7854 31.4204C44.7852 31.421 44.7838 31.4238 44.7804 31.4273C44.7787 31.429 44.7771 31.4303 44.7759 31.4311C44.7748 31.4318 44.7739 31.4322 44.7737 31.4324L44.7733 31.4325C44.7732 31.4325 44.7714 31.4329 44.767 31.4328L17.5787 31.2008C13.7701 31.1683 11.7854 35.7217 14.4017 38.4896L26.2721 51.0478C26.2749 51.0507 26.2768 51.053 26.2781 51.0547C26.2781 51.0569 26.2778 51.0604 26.2767 51.065C26.2756 51.0696 26.2742 51.0729 26.2732 51.0749C26.2713 51.0757 26.2685 51.0769 26.2647 51.0783L5.09066 58.5416C1.24469 59.8972 1.24472 65.3362 5.09067 66.6918L26.2647 74.1551C26.2685 74.1565 26.2713 74.1576 26.2732 74.1585C26.2742 74.1605 26.2756 74.1638 26.2767 74.1684C26.2778 74.173 26.2781 74.1765 26.2781 74.1787C26.2768 74.1804 26.2749 74.1827 26.2721 74.1856L14.4017 86.7438C11.7854 89.5117 13.7701 94.0651 17.5787 94.0326L44.767 93.8006C44.7693 93.8005 44.7709 93.8006 44.7719 93.8008C44.7728 93.8008 44.7733 93.8009 44.7733 93.8009L44.7737 93.801C44.7742 93.8013 44.777 93.8027 44.7804 93.8061C44.7838 93.8096 44.7852 93.8124 44.7854 93.813L44.7855 93.8133C44.7855 93.8134 44.7859 93.8152 44.7858 93.8197L44.4352 110.13C44.3695 113.186 47.4111 115.342 50.273 114.268L49.5173 112.254L50.273 114.268L75.539 104.788C75.5402 104.787 75.5412 104.787 75.542 104.787C75.543 104.787 75.5437 104.787 75.5443 104.787C75.5457 104.786 75.5477 104.787 75.5501 104.787C75.5524 104.788 75.5543 104.789 75.5555 104.789C75.5563 104.79 75.5576 104.791 75.5596 104.793L89.8028 120.834C91.5218 122.77 94.5459 122.77 96.2649 120.834L110.508 104.793C110.51 104.791 110.511 104.79 110.512 104.789C110.513 104.789 110.515 104.788 110.518 104.787C110.52 104.787 110.522 104.786 110.523 104.787C110.524 104.787 110.525 104.787 110.526 104.787C110.527 104.787 110.528 104.787 110.529 104.788L135.795 114.268C138.657 115.342 141.698 113.186 141.632 110.13L141.282 93.8197C141.282 93.8152 141.282 93.8134 141.282 93.8133L141.282 93.813C141.283 93.8124 141.284 93.8096 141.287 93.8061C141.291 93.8027 141.293 93.8013 141.294 93.801L141.294 93.8009C141.294 93.8009 141.295 93.8008 141.296 93.8008C141.297 93.8007 141.298 93.8005 141.301 93.8006L168.489 94.0326C172.298 94.065 174.282 89.5117 171.666 86.7438L159.796 74.1856C159.793 74.1827 159.791 74.1804 159.79 74.1787C159.79 74.1765 159.79 74.173 159.791 74.1684C159.792 74.1638 159.794 74.1605 159.794 74.1585C159.796 74.1577 159.799 74.1565 159.803 74.1551L180.977 66.6918C184.823 65.3362 184.823 59.8972 180.977 58.5416L159.803 51.0783C159.799 51.0769 159.796 51.0758 159.795 51.0749C159.794 51.0729 159.792 51.0696 159.791 51.065C159.79 51.0604 159.79 51.0569 159.79 51.0547C159.791 51.053 159.793 51.0507 159.796 51.0478L171.666 38.4896C174.282 35.7217 172.298 31.1683 168.489 31.2008L141.301 31.4328C141.296 31.4329 141.294 31.4325 141.294 31.4325L141.294 31.4324C141.293 31.4321 141.291 31.4307 141.287 31.4273C141.284 31.4238 141.283 31.421 141.282 31.4205L141.282 31.4201C141.282 31.42 141.282 31.4182 141.282 31.4137L141.632 15.1033C141.698 12.0473 138.657 9.89115 135.795 10.965L110.529 20.4456C110.526 20.4467 110.524 20.4468 110.523 20.4469C110.522 20.447 110.52 20.4468 110.518 20.4463C110.517 20.4461 110.516 20.4459 110.516 20.4456C110.514 20.4452 110.513 20.4446 110.512 20.4441C110.511 20.4436 110.51 20.4428 110.508 20.4405L108.9 21.8687L110.508 20.4405L96.2649 4.39912C94.5459 2.46311 91.5218 2.46312 89.8028 4.39912L75.5596 20.4405Z" fill="#F7D124" stroke="#180830" stroke-width="4.30214"/>
</svg>
