<svg width="904" height="527" viewBox="0 0 904 527" fill="none" xmlns="http://www.w3.org/2000/svg">
<path d="M217.882 178.517L215.174 153.58L237.039 151.205C241.978 150.669 245.582 149.058 247.85 146.374C250.238 143.677 251.217 140.341 250.785 136.366C250.353 132.39 248.681 129.342 245.769 127.22C242.978 125.086 239.113 124.286 234.173 124.823L212.309 127.198L209.483 101.177L237.13 98.174C246.044 97.2058 254.051 97.9816 261.151 100.502C268.25 103.022 274.041 106.963 278.524 112.327C283.007 117.691 285.667 124.228 286.505 131.938C287.342 139.647 286.087 146.61 282.74 152.824C279.513 159.025 274.582 164.131 267.949 168.143C261.315 172.154 253.239 174.677 243.722 175.71L217.882 178.517ZM194.182 233.015L180.209 104.356L216.349 100.431L230.322 229.09L194.182 233.015ZM263.571 225.479L222.549 174.353L254.31 163.773L304.59 221.024L263.571 225.479Z" fill="#306EF9"/>
<path d="M326.225 191.979L312.823 63.2597L348.981 59.4953L362.382 188.215L326.225 191.979ZM355.512 188.93L352.388 158.92L421.448 151.73L424.573 181.74L355.512 188.93ZM350.204 137.949L347.155 108.661L409.526 102.168L412.576 131.455L350.204 137.949ZM345.235 90.221L342.111 60.2105L410.086 53.1333L413.211 83.1438L345.235 90.221Z" fill="#306EF9"/>
<path d="M90.791 371.835L83.7696 338.112L113.338 331.956C120.017 330.565 124.728 327.885 127.471 323.914C130.377 319.91 131.27 315.219 130.151 309.843C129.031 304.467 126.34 300.523 122.078 298.011C117.978 295.465 112.589 294.888 105.909 296.278L76.3411 302.435L69.0145 267.246L106.403 259.462C118.458 256.951 129.505 256.946 139.544 259.445C149.583 261.944 158.023 266.561 164.864 273.295C171.705 280.029 176.212 288.61 178.382 299.036C180.553 309.462 179.765 319.145 176.017 328.084C172.432 336.989 166.373 344.625 157.84 350.991C149.307 357.357 138.605 361.88 125.735 364.559L90.791 371.835ZM65.6534 449.478L29.4271 275.489L78.3004 265.313L114.527 439.302L65.6534 449.478ZM159.49 429.94L96.6156 365.523L138.617 346.834L214.961 418.39L159.49 429.94Z" fill="#FF4E78"/>
<path d="M773.26 389.39L683.276 289.06L739.48 277.357L808.96 360.031L766.929 368.782L797.639 265.248L852.622 253.8L809.671 381.809L773.26 389.39ZM780.105 450.43L763.925 372.722L812.799 362.546L828.978 440.254L780.105 450.43Z" fill="#FF4E78"/>
<path d="M223.58 404.037L231.971 274.894L268.247 277.251L259.856 406.394L223.58 404.037ZM252.964 405.946L254.92 375.837L324.207 380.339L322.251 410.448L252.964 405.946ZM256.287 354.797L258.196 325.413L320.773 329.479L318.863 358.862L256.287 354.797ZM259.398 306.912L261.355 276.803L329.554 281.234L327.597 311.343L259.398 306.912Z" fill="#FF4E78"/>
<path d="M352.928 402.695L410.474 276.745L447.475 279.15L487.694 411.451L449.967 409L421.002 296.919L434.062 297.768L389.93 405.099L352.928 402.695ZM386.266 383.003L388.104 354.708L460.294 359.398L458.455 387.694L386.266 383.003Z" fill="#FF4E78"/>
<path d="M352.929 402.695L410.474 276.745L447.475 279.15L487.695 411.451L449.967 409L421.002 296.919L434.062 297.768L389.93 405.099L352.929 402.695ZM386.266 383.003L388.104 354.708L460.294 359.398L458.455 387.694L386.266 383.003Z" fill="#FF4E78"/>
<path d="M555.695 384.824L557.699 353.989L587.808 355.946C594.58 356.385 600.523 355.557 605.638 353.461C610.761 351.244 614.817 347.682 617.807 342.777C620.797 337.871 622.536 331.669 623.023 324.172C623.51 316.675 622.524 310.357 620.065 305.219C617.727 300.088 614.158 296.153 609.357 293.412C604.685 290.559 598.964 288.912 592.192 288.472L560.269 286.398L562.273 255.563L594.196 257.637C604.353 258.297 613.566 260.413 621.834 263.986C630.223 267.567 637.376 272.404 643.295 278.495C649.214 284.587 653.607 291.734 656.474 299.934C659.47 308.022 660.65 316.963 660.013 326.758C659.377 336.552 657.046 345.326 653.021 353.079C649.124 360.719 643.847 367.176 637.19 372.451C630.533 377.726 622.874 381.599 614.213 384.072C605.552 386.545 596.204 387.456 586.167 386.804L555.695 384.824ZM531.39 383.245L539.781 254.102L576.058 256.459L567.667 385.602L531.39 383.245Z" fill="#FF4E78"/>
<path d="M472.519 184.782L421.367 101.026L463.162 100.087L501.97 168.485L470.714 169.187L506.411 99.1154L547.297 98.1968L499.595 184.173L472.519 184.782ZM469.34 229.397L468.042 171.61L504.385 170.794L505.683 228.58L469.34 229.397Z" fill="#CAFB12"/>
<path d="M623.651 237.514C612.232 237.77 601.959 235.674 592.832 231.224C583.843 226.631 576.647 220.234 571.244 212.033C565.982 203.83 563.233 194.512 562.999 184.079C562.765 173.647 565.093 164.286 569.985 155.995C574.876 147.704 581.71 141.133 590.487 136.281C599.402 131.285 609.569 128.659 620.988 128.403C632.407 128.146 642.612 130.315 651.601 134.908C660.587 139.361 667.709 145.619 672.968 153.681C678.368 161.741 681.185 170.986 681.42 181.419C681.654 191.851 679.327 201.283 674.439 209.715C669.55 218.146 662.719 224.859 653.946 229.851C645.169 234.703 635.07 237.257 623.651 237.514ZM622.623 201.147C626.147 201.067 629.162 200.294 631.668 198.828C634.312 197.217 636.309 195.056 637.658 192.346C639.005 189.495 639.637 186.236 639.554 182.571C639.472 178.906 638.625 175.751 637.014 173.107C635.541 170.319 633.52 168.249 630.951 166.896C628.378 165.403 625.33 164.695 621.805 164.775C618.422 164.851 615.408 165.694 612.765 167.305C610.262 168.913 608.267 171.144 606.779 173.998C605.43 176.708 604.796 179.896 604.879 183.562C604.958 187.086 605.734 190.242 607.207 193.03C608.818 195.674 610.91 197.743 613.482 199.236C616.192 200.586 619.239 201.223 622.623 201.147Z" fill="#CAFB12"/>
<path d="M773.654 237.514C760.402 237.812 748.782 235.393 738.793 230.257C728.801 224.981 720.948 217.611 715.235 208.148C709.521 198.686 706.525 187.751 706.247 175.345L704.237 85.8953L746.53 84.945L748.625 178.201C748.733 182.994 749.882 187.059 752.073 190.395C754.263 193.731 757.141 196.276 760.707 198.029C764.41 199.639 768.447 200.394 772.818 200.296C777.329 200.195 781.257 199.26 784.603 197.492C788.086 195.58 790.778 192.981 792.679 189.694C794.576 186.266 795.471 182.156 795.364 177.363L793.264 83.895L835.768 82.94L837.783 172.601C838.061 185.007 835.559 196.065 830.277 205.775C825.132 215.341 817.687 222.984 807.942 228.704C798.335 234.279 786.906 237.216 773.654 237.514Z" fill="#CAFB12"/>
<path d="M378.148 245.506C395.903 245.506 410.245 230.952 410.245 213.061C410.245 195.17 395.903 180.616 378.148 180.616C360.393 180.616 346.05 195.17 346.05 213.061C346.05 230.952 360.393 245.506 378.148 245.506Z" fill="#06C96B" stroke="black" stroke-width="5.06802"/>
<path d="M377.941 201.856V217.385C376.234 216.404 374.127 216.023 371.893 216.804C369.46 217.675 367.589 219.837 367.153 222.379C366.951 223.524 367.027 224.699 367.373 225.808C367.718 226.917 368.325 227.928 369.141 228.754C369.957 229.581 370.959 230.201 372.064 230.561C373.168 230.921 374.343 231.012 375.489 230.825C379.049 230.262 381.574 226.993 381.574 223.378V205.488H385.206C387.204 205.488 388.839 203.854 388.839 201.856C388.839 199.858 387.204 198.223 385.206 198.223H381.574C379.576 198.223 377.941 199.858 377.941 201.856Z" fill="white"/>
<path d="M17.8252 192.238L105.665 85.1918L140.822 96.9782L145.871 235.166L110.025 223.148L110.685 107.387L123.093 111.547L52.9818 204.024L17.8252 192.238ZM55.0896 181.726L64.1028 154.842L132.693 177.837L123.679 204.721L55.0896 181.726Z" fill="#306EF9"/>
<g clip-path="url(#clip0_17_1362)">
<path d="M577.655 285.879C577.234 284.548 577.324 283.108 577.905 281.838C578.486 280.569 579.518 279.561 580.801 279.01L622.404 261.152C623.127 260.841 623.907 260.685 624.694 260.695C625.481 260.704 626.257 260.878 626.972 261.206C627.688 261.533 628.327 262.007 628.848 262.597C629.369 263.187 629.76 263.88 629.997 264.63L631.515 269.436L579.511 291.759L577.655 285.879Z" fill="white"/>
<ellipse cx="586.578" cy="342.619" rx="14.5125" ry="11.098" transform="rotate(-18.6699 586.578 342.619)" fill="white"/>
<rect x="579.104" y="290.492" width="5.63114" height="53.3129" transform="rotate(-17.52 579.104 290.492)" fill="white"/>
</g>
<circle cx="817.099" cy="67.3027" r="27.2449" transform="rotate(-23.5996 817.099 67.3027)" fill="#FF4E78" stroke="black" stroke-width="4.50491"/>
<path d="M811.782 80.9148C816.735 84.2815 827.437 87.3491 830.617 72.6863" stroke="black" stroke-width="3.37868"/>
<ellipse cx="806.581" cy="67.4356" rx="3.66024" ry="5.63114" transform="rotate(-23.5996 806.581 67.4356)" fill="#111111"/>
<ellipse cx="823.611" cy="59.9971" rx="3.66024" ry="5.63114" transform="rotate(-23.5996 823.611 59.9971)" fill="#111111"/>
<defs>
<clipPath id="clip0_17_1362">
<rect width="90.0982" height="90.0982" fill="white" transform="translate(545.88 278.759) rotate(-17.521)"/>
</clipPath>
</defs>
</svg>
