<svg width="22" height="22" viewBox="0 0 22 22" fill="none" xmlns="http://www.w3.org/2000/svg">
<path d="M10.9229 10.7893C11.4093 10.7893 11.8258 10.616 12.1725 10.2693C12.5186 9.92321 12.6917 9.50696 12.6917 9.02056C12.6917 8.53415 12.5186 8.11761 12.1725 7.77093C11.8258 7.42485 11.4093 7.25181 10.9229 7.25181C10.4365 7.25181 10.0202 7.42485 9.67416 7.77093C9.32749 8.11761 9.15415 8.53415 9.15415 9.02056C9.15415 9.50696 9.32749 9.92321 9.67416 10.2693C10.0202 10.616 10.4365 10.7893 10.9229 10.7893ZM10.9229 17.2895C12.7211 15.6386 14.0551 14.1387 14.9247 12.7898C15.7943 11.4414 16.2291 10.2439 16.2291 9.19743C16.2291 7.59082 15.7168 6.27516 14.6921 5.25047C13.668 4.22636 12.4116 3.71431 10.9229 3.71431C9.4342 3.71431 8.17751 4.22636 7.15281 5.25047C6.1287 6.27516 5.61665 7.59082 5.61665 9.19743C5.61665 10.2439 6.05147 11.4414 6.9211 12.7898C7.79074 14.1387 9.12467 15.6386 10.9229 17.2895ZM10.9229 19.6331C8.54983 17.6137 6.77754 15.738 5.60604 14.0058C4.43395 12.2742 3.8479 10.6714 3.8479 9.19743C3.8479 6.98649 4.55923 5.22511 5.9819 3.91329C7.40397 2.60147 9.05097 1.94556 10.9229 1.94556C12.7948 1.94556 14.4418 2.60147 15.8639 3.91329C17.2866 5.22511 17.9979 6.98649 17.9979 9.19743C17.9979 10.6714 17.4121 12.2742 16.2406 14.0058C15.0686 15.738 13.296 17.6137 10.9229 19.6331Z" fill="white"/>
</svg>
