<svg width="26" height="20" viewBox="0 0 26 20" fill="none" xmlns="http://www.w3.org/2000/svg">
<path fill-rule="evenodd" clip-rule="evenodd" d="M0.785 2.315C0.5 3.00375 0.5 3.8775 0.5 5.625V6.5625C0.5 7.08 0.92 7.5 1.4375 7.5H1.75C2.41304 7.5 3.04893 7.76339 3.51777 8.23223C3.98661 8.70107 4.25 9.33696 4.25 10C4.25 10.663 3.98661 11.2989 3.51777 11.7678C3.04893 12.2366 2.41304 12.5 1.75 12.5H1.4375C1.18886 12.5 0.950403 12.5988 0.774587 12.7746C0.598772 12.9504 0.5 13.1889 0.5 13.4375V14.375C0.5 16.1225 0.5 16.9963 0.785 17.685C0.973458 18.1401 1.24973 18.5536 1.59805 18.902C1.94636 19.2503 2.35989 19.5265 2.815 19.715C3.50375 20 4.3775 20 6.125 20H19.875C21.6225 20 22.4963 20 23.185 19.715C23.6401 19.5265 24.0536 19.2503 24.402 18.902C24.7503 18.5536 25.0265 18.1401 25.215 17.685C25.5 16.9963 25.5 16.1225 25.5 14.375V13.4375C25.5 13.1889 25.4012 12.9504 25.2254 12.7746C25.0496 12.5988 24.8111 12.5 24.5625 12.5H24.25C23.587 12.5 22.9511 12.2366 22.4822 11.7678C22.0134 11.2989 21.75 10.663 21.75 10C21.75 9.33696 22.0134 8.70107 22.4822 8.23223C22.9511 7.76339 23.587 7.5 24.25 7.5H24.5625C24.8111 7.5 25.0496 7.40123 25.2254 7.22541C25.4012 7.0496 25.5 6.81114 25.5 6.5625V5.625C25.5 3.8775 25.5 3.00375 25.215 2.315C25.0265 1.85989 24.7503 1.44636 24.402 1.09805C24.0536 0.749735 23.6401 0.473458 23.185 0.285C22.4963 2.04891e-07 21.6225 0 19.875 0H6.125C4.3775 0 3.50375 2.04891e-07 2.815 0.285C2.35989 0.473458 1.94636 0.749735 1.59805 1.09805C1.24973 1.44636 0.973458 1.85989 0.785 2.315ZM12.4462 8.36C12.3263 8.67 12.2663 8.825 12.155 8.93C12.124 8.95965 12.0901 8.98604 12.0538 9.00875C11.9237 9.08875 11.7625 9.10375 11.44 9.13375C10.8938 9.18375 10.6212 9.21 10.5375 9.37125C10.5205 9.40511 10.5087 9.44135 10.5025 9.47875C10.475 9.66 10.675 9.85 11.0775 10.2287L11.1887 10.3337C11.3762 10.5113 11.47 10.6 11.525 10.71C11.5567 10.7773 11.5782 10.8489 11.5888 10.9225C11.6063 11.045 11.5788 11.1725 11.5238 11.43L11.5038 11.5225C11.405 11.9838 11.3562 12.2138 11.4175 12.3275C11.4438 12.3771 11.4824 12.4191 11.5298 12.4493C11.5771 12.4796 11.6314 12.497 11.6875 12.5C11.8125 12.5063 11.9888 12.3575 12.3425 12.0588C12.5737 11.8612 12.69 11.7638 12.82 11.725C12.9374 11.6897 13.0626 11.6897 13.18 11.725C13.31 11.7625 13.4263 11.8625 13.6588 12.0588C14.0113 12.3575 14.1875 12.5063 14.3125 12.5C14.3686 12.497 14.4229 12.4796 14.4702 12.4493C14.5176 12.4191 14.5562 12.3771 14.5825 12.3275C14.6438 12.215 14.595 11.9838 14.495 11.5225L14.4762 11.43C14.4212 11.1737 14.3937 11.045 14.4112 10.9225C14.4218 10.8489 14.4433 10.7773 14.475 10.71C14.53 10.6 14.6238 10.51 14.8113 10.335L14.9237 10.2287C15.3237 9.85 15.525 9.66 15.4975 9.47875C15.4913 9.44135 15.4795 9.40511 15.4625 9.37125C15.3788 9.21 15.1062 9.18375 14.56 9.13375C14.2375 9.10375 14.0763 9.08875 13.9475 9.00875C13.9107 8.98611 13.8764 8.95972 13.845 8.93C13.7325 8.825 13.6737 8.67 13.5538 8.36C13.3438 7.8175 13.2388 7.545 13.0688 7.5075C13.0233 7.49902 12.9767 7.49902 12.9312 7.5075C12.7612 7.545 12.6562 7.8175 12.4462 8.36Z" fill="#FFDE29"/>
</svg>
